<mxfile host="Electron" modified="2024-07-15T15:43:37.394Z" agent="Mozilla/5.0 (Windows NT 10.0; Win64; x64) AppleWebKit/537.36 (KHTML, like Gecko) draw.io/24.6.4 Chrome/124.0.6367.207 Electron/30.0.6 Safari/537.36" etag="oIQUA4Ly0Oi0-aM47E2U" version="24.6.4" type="device">
  <diagram id="C5RBs43oDa-KdzZeNtuy" name="Page-1">
    <mxGraphModel dx="1290" dy="629" grid="1" gridSize="10" guides="1" tooltips="1" connect="1" arrows="1" fold="1" page="1" pageScale="1" pageWidth="827" pageHeight="1169" math="0" shadow="0">
      <root>
        <mxCell id="WIyWlLk6GJQsqaUBKTNV-0" />
        <mxCell id="WIyWlLk6GJQsqaUBKTNV-1" parent="WIyWlLk6GJQsqaUBKTNV-0" />
        <mxCell id="zkfFHV4jXpPFQw0GAbJ--0" value="Mower Motor " style="swimlane;fontStyle=2;align=center;verticalAlign=top;childLayout=stackLayout;horizontal=1;startSize=26;horizontalStack=0;resizeParent=1;resizeLast=0;collapsible=1;marginBottom=0;rounded=0;shadow=0;strokeWidth=1;" parent="WIyWlLk6GJQsqaUBKTNV-1" vertex="1">
          <mxGeometry x="80" y="120" width="320" height="242" as="geometry">
            <mxRectangle x="230" y="140" width="160" height="26" as="alternateBounds" />
          </mxGeometry>
        </mxCell>
        <mxCell id="zkfFHV4jXpPFQw0GAbJ--1" value="- enum _state&#xa;- enum _internal_state&#xa;- uint    _speed&#xa;- uint    _power&#xa;- uint    _power&#xa;- float   _PCB_temp&#xa;- float   _motor_temp&#xa;" style="text;align=left;verticalAlign=top;spacingLeft=4;spacingRight=4;overflow=hidden;rotatable=0;points=[[0,0.5],[1,0.5]];portConstraint=eastwest;" parent="zkfFHV4jXpPFQw0GAbJ--0" vertex="1">
          <mxGeometry y="26" width="320" height="114" as="geometry" />
        </mxCell>
        <mxCell id="zkfFHV4jXpPFQw0GAbJ--4" value="" style="line;html=1;strokeWidth=1;align=left;verticalAlign=middle;spacingTop=-1;spacingLeft=3;spacingRight=3;rotatable=0;labelPosition=right;points=[];portConstraint=eastwest;" parent="zkfFHV4jXpPFQw0GAbJ--0" vertex="1">
          <mxGeometry y="140" width="320" height="2" as="geometry" />
        </mxCell>
        <mxCell id="zkfFHV4jXpPFQw0GAbJ--5" value="+getState()&#xa;+getSpeed()&#xa;+getPower()&#xa;+getTemperature()&#xa;+Set(bool On_Off, bool  direction)&#xa;+SetSpeed(uint RPM)" style="text;align=left;verticalAlign=top;spacingLeft=4;spacingRight=4;overflow=hidden;rotatable=0;points=[[0,0.5],[1,0.5]];portConstraint=eastwest;" parent="zkfFHV4jXpPFQw0GAbJ--0" vertex="1">
          <mxGeometry y="142" width="320" height="100" as="geometry" />
        </mxCell>
        <mxCell id="A18glnfW7x507_V31tIE-6" value="&lt;p style=&quot;margin: 4px 0px 0px; text-align: center;&quot;&gt;&lt;u style=&quot;font-weight: bold;&quot;&gt;ENUM&amp;nbsp;&lt;/u&gt;:Mower_Motor_state&lt;/p&gt;&lt;hr size=&quot;1&quot; style=&quot;border-style:solid;&quot;&gt;&lt;p style=&quot;margin:0px;margin-left:8px;&quot;&gt;NOTINIT&lt;br&gt;OFF&lt;br&gt;ON_CW&lt;/p&gt;&lt;p style=&quot;margin:0px;margin-left:8px;&quot;&gt;ON_CCW&lt;br&gt;&lt;/p&gt;&lt;p style=&quot;margin:0px;margin-left:8px;&quot;&gt;ERROR&lt;/p&gt;" style="verticalAlign=top;align=left;overflow=fill;html=1;whiteSpace=wrap;" parent="WIyWlLk6GJQsqaUBKTNV-1" vertex="1">
          <mxGeometry x="520" y="160" width="160" height="120" as="geometry" />
        </mxCell>
        <mxCell id="Ujw5lM8O871B_2RmkJ98-6" value="Drive Motors " style="swimlane;fontStyle=2;align=center;verticalAlign=top;childLayout=stackLayout;horizontal=1;startSize=26;horizontalStack=0;resizeParent=1;resizeLast=0;collapsible=1;marginBottom=0;rounded=0;shadow=0;strokeWidth=1;" vertex="1" parent="WIyWlLk6GJQsqaUBKTNV-1">
          <mxGeometry x="80" y="400" width="320" height="300" as="geometry">
            <mxRectangle x="230" y="140" width="160" height="26" as="alternateBounds" />
          </mxGeometry>
        </mxCell>
        <mxCell id="Ujw5lM8O871B_2RmkJ98-7" value="- enum _internal_state&#xa;- int    _left_speed_set&#xa;- int    _right_speed_set&#xa;- uint  _left_power&#xa;- uint  _right_power&#xa;- int    _left_speed_fed&#xa;- int    _right_speed_fed&#xa;- float _left_PCB_temp&#xa;- float _left_motor_temp&#xa;- float _right_PCB_temp&#xa;- float _right_motor_temp&#xa;" style="text;align=left;verticalAlign=top;spacingLeft=4;spacingRight=4;overflow=hidden;rotatable=0;points=[[0,0.5],[1,0.5]];portConstraint=eastwest;" vertex="1" parent="Ujw5lM8O871B_2RmkJ98-6">
          <mxGeometry y="26" width="320" height="174" as="geometry" />
        </mxCell>
        <mxCell id="Ujw5lM8O871B_2RmkJ98-8" value="" style="line;html=1;strokeWidth=1;align=left;verticalAlign=middle;spacingTop=-1;spacingLeft=3;spacingRight=3;rotatable=0;labelPosition=right;points=[];portConstraint=eastwest;" vertex="1" parent="Ujw5lM8O871B_2RmkJ98-6">
          <mxGeometry y="200" width="320" height="2" as="geometry" />
        </mxCell>
        <mxCell id="Ujw5lM8O871B_2RmkJ98-9" value="+getState()&#xa;+getSpeed()&#xa;+getPower()&#xa;+getTemperature()&#xa;+SetIdle(bool On_Off)&#xa;+SetSpeed(float linearSpeed, float angularSpeed)" style="text;align=left;verticalAlign=top;spacingLeft=4;spacingRight=4;overflow=hidden;rotatable=0;points=[[0,0.5],[1,0.5]];portConstraint=eastwest;" vertex="1" parent="Ujw5lM8O871B_2RmkJ98-6">
          <mxGeometry y="202" width="320" height="98" as="geometry" />
        </mxCell>
        <mxCell id="Ujw5lM8O871B_2RmkJ98-10" value="&lt;p style=&quot;margin: 4px 0px 0px; text-align: center;&quot;&gt;&lt;u style=&quot;font-weight: bold;&quot;&gt;ENUM&amp;nbsp;&lt;/u&gt;:Drive_Motor_state&lt;/p&gt;&lt;hr size=&quot;1&quot; style=&quot;border-style:solid;&quot;&gt;&lt;p style=&quot;margin:0px;margin-left:8px;&quot;&gt;NOTINIT&lt;br&gt;IDLE&lt;/p&gt;&lt;p style=&quot;margin:0px;margin-left:8px;&quot;&gt;RUN&lt;/p&gt;&lt;p style=&quot;margin:0px;margin-left:8px;&quot;&gt;ERROR&lt;/p&gt;" style="verticalAlign=top;align=left;overflow=fill;html=1;whiteSpace=wrap;" vertex="1" parent="WIyWlLk6GJQsqaUBKTNV-1">
          <mxGeometry x="520" y="440" width="160" height="120" as="geometry" />
        </mxCell>
        <mxCell id="Ujw5lM8O871B_2RmkJ98-11" value="SetIdle can be also SetFreewheel function" style="text;html=1;align=center;verticalAlign=middle;whiteSpace=wrap;rounded=0;" vertex="1" parent="WIyWlLk6GJQsqaUBKTNV-1">
          <mxGeometry x="430" y="585" width="150" height="30" as="geometry" />
        </mxCell>
        <mxCell id="Ujw5lM8O871B_2RmkJ98-13" value="Battery Charger" style="swimlane;fontStyle=2;align=center;verticalAlign=top;childLayout=stackLayout;horizontal=1;startSize=26;horizontalStack=0;resizeParent=1;resizeLast=0;collapsible=1;marginBottom=0;rounded=0;shadow=0;strokeWidth=1;" vertex="1" parent="WIyWlLk6GJQsqaUBKTNV-1">
          <mxGeometry x="80" y="760" width="320" height="240" as="geometry">
            <mxRectangle x="230" y="140" width="160" height="26" as="alternateBounds" />
          </mxGeometry>
        </mxCell>
        <mxCell id="Ujw5lM8O871B_2RmkJ98-14" value="- enum _internalState&#xa;- float _SetCurrentCharge&#xa;&#xa;&#xa;- float batteryVoltage&#xa;- float chargerVoltage&#xa;- float chargeVoltage&#xa;- float batteryCurrent&#xa;" style="text;align=left;verticalAlign=top;spacingLeft=4;spacingRight=4;overflow=hidden;rotatable=0;points=[[0,0.5],[1,0.5]];portConstraint=eastwest;" vertex="1" parent="Ujw5lM8O871B_2RmkJ98-13">
          <mxGeometry y="26" width="320" height="124" as="geometry" />
        </mxCell>
        <mxCell id="Ujw5lM8O871B_2RmkJ98-15" value="" style="line;html=1;strokeWidth=1;align=left;verticalAlign=middle;spacingTop=-1;spacingLeft=3;spacingRight=3;rotatable=0;labelPosition=right;points=[];portConstraint=eastwest;" vertex="1" parent="Ujw5lM8O871B_2RmkJ98-13">
          <mxGeometry y="150" width="320" height="2" as="geometry" />
        </mxCell>
        <mxCell id="Ujw5lM8O871B_2RmkJ98-16" value="+getState()&#xa;+getValues()&#xa;+setCurrentCharge()" style="text;align=left;verticalAlign=top;spacingLeft=4;spacingRight=4;overflow=hidden;rotatable=0;points=[[0,0.5],[1,0.5]];portConstraint=eastwest;" vertex="1" parent="Ujw5lM8O871B_2RmkJ98-13">
          <mxGeometry y="152" width="320" height="58" as="geometry" />
        </mxCell>
        <mxCell id="Ujw5lM8O871B_2RmkJ98-17" value="Emergency" style="swimlane;fontStyle=2;align=center;verticalAlign=top;childLayout=stackLayout;horizontal=1;startSize=26;horizontalStack=0;resizeParent=1;resizeLast=0;collapsible=1;marginBottom=0;rounded=0;shadow=0;strokeWidth=1;" vertex="1" parent="WIyWlLk6GJQsqaUBKTNV-1">
          <mxGeometry x="80" y="1040" width="320" height="130" as="geometry">
            <mxRectangle x="230" y="140" width="160" height="26" as="alternateBounds" />
          </mxGeometry>
        </mxCell>
        <mxCell id="Ujw5lM8O871B_2RmkJ98-18" value="- enum _internalState&#xa;- bool Emergency&#xa;" style="text;align=left;verticalAlign=top;spacingLeft=4;spacingRight=4;overflow=hidden;rotatable=0;points=[[0,0.5],[1,0.5]];portConstraint=eastwest;" vertex="1" parent="Ujw5lM8O871B_2RmkJ98-17">
          <mxGeometry y="26" width="320" height="44" as="geometry" />
        </mxCell>
        <mxCell id="Ujw5lM8O871B_2RmkJ98-19" value="" style="line;html=1;strokeWidth=1;align=left;verticalAlign=middle;spacingTop=-1;spacingLeft=3;spacingRight=3;rotatable=0;labelPosition=right;points=[];portConstraint=eastwest;" vertex="1" parent="Ujw5lM8O871B_2RmkJ98-17">
          <mxGeometry y="70" width="320" height="2" as="geometry" />
        </mxCell>
        <mxCell id="Ujw5lM8O871B_2RmkJ98-20" value="+getState()&#xa;+resetState()&#xa;+disableSafety()" style="text;align=left;verticalAlign=top;spacingLeft=4;spacingRight=4;overflow=hidden;rotatable=0;points=[[0,0.5],[1,0.5]];portConstraint=eastwest;" vertex="1" parent="Ujw5lM8O871B_2RmkJ98-17">
          <mxGeometry y="72" width="320" height="58" as="geometry" />
        </mxCell>
        <mxCell id="Ujw5lM8O871B_2RmkJ98-23" value="Maybe do a Motor interface for the 3 motors like the VESC implementation" style="text;html=1;align=center;verticalAlign=middle;whiteSpace=wrap;rounded=0;" vertex="1" parent="WIyWlLk6GJQsqaUBKTNV-1">
          <mxGeometry x="470" y="350" width="110" height="30" as="geometry" />
        </mxCell>
        <mxCell id="Ujw5lM8O871B_2RmkJ98-24" value="&lt;p style=&quot;margin: 4px 0px 0px; text-align: center;&quot;&gt;&lt;u style=&quot;font-weight: bold;&quot;&gt;ENUM&amp;nbsp;&lt;/u&gt;: Battery_Charger_state&lt;/p&gt;&lt;hr size=&quot;1&quot; style=&quot;border-style:solid;&quot;&gt;&lt;p style=&quot;margin:0px;margin-left:8px;&quot;&gt;NOTINIT&lt;br&gt;IDLE&lt;/p&gt;&lt;p style=&quot;margin:0px;margin-left:8px;&quot;&gt;DOCKED&lt;/p&gt;&lt;p style=&quot;margin:0px;margin-left:8px;&quot;&gt;CHARGING&lt;/p&gt;&lt;p style=&quot;margin:0px;margin-left:8px;&quot;&gt;ERROR&lt;/p&gt;" style="verticalAlign=top;align=left;overflow=fill;html=1;whiteSpace=wrap;" vertex="1" parent="WIyWlLk6GJQsqaUBKTNV-1">
          <mxGeometry x="520" y="800" width="190" height="120" as="geometry" />
        </mxCell>
        <mxCell id="Ujw5lM8O871B_2RmkJ98-25" value="Bump Sensors" style="swimlane;fontStyle=2;align=center;verticalAlign=top;childLayout=stackLayout;horizontal=1;startSize=26;horizontalStack=0;resizeParent=1;resizeLast=0;collapsible=1;marginBottom=0;rounded=0;shadow=0;strokeWidth=1;" vertex="1" parent="WIyWlLk6GJQsqaUBKTNV-1">
          <mxGeometry x="80" y="1200" width="320" height="140" as="geometry">
            <mxRectangle x="230" y="140" width="160" height="26" as="alternateBounds" />
          </mxGeometry>
        </mxCell>
        <mxCell id="Ujw5lM8O871B_2RmkJ98-26" value="- enum _internalState&#xa;- bool right_bump&#xa;- bool left_bump&#xa;" style="text;align=left;verticalAlign=top;spacingLeft=4;spacingRight=4;overflow=hidden;rotatable=0;points=[[0,0.5],[1,0.5]];portConstraint=eastwest;" vertex="1" parent="Ujw5lM8O871B_2RmkJ98-25">
          <mxGeometry y="26" width="320" height="54" as="geometry" />
        </mxCell>
        <mxCell id="Ujw5lM8O871B_2RmkJ98-27" value="" style="line;html=1;strokeWidth=1;align=left;verticalAlign=middle;spacingTop=-1;spacingLeft=3;spacingRight=3;rotatable=0;labelPosition=right;points=[];portConstraint=eastwest;" vertex="1" parent="Ujw5lM8O871B_2RmkJ98-25">
          <mxGeometry y="80" width="320" height="2" as="geometry" />
        </mxCell>
        <mxCell id="Ujw5lM8O871B_2RmkJ98-28" value="+getState()&#xa;+getBump()" style="text;align=left;verticalAlign=top;spacingLeft=4;spacingRight=4;overflow=hidden;rotatable=0;points=[[0,0.5],[1,0.5]];portConstraint=eastwest;" vertex="1" parent="Ujw5lM8O871B_2RmkJ98-25">
          <mxGeometry y="82" width="320" height="58" as="geometry" />
        </mxCell>
        <mxCell id="Ujw5lM8O871B_2RmkJ98-29" value="Panel" style="swimlane;fontStyle=2;align=center;verticalAlign=top;childLayout=stackLayout;horizontal=1;startSize=26;horizontalStack=0;resizeParent=1;resizeLast=0;collapsible=1;marginBottom=0;rounded=0;shadow=0;strokeWidth=1;" vertex="1" parent="WIyWlLk6GJQsqaUBKTNV-1">
          <mxGeometry x="80" y="1400" width="320" height="140" as="geometry">
            <mxRectangle x="230" y="140" width="160" height="26" as="alternateBounds" />
          </mxGeometry>
        </mxCell>
        <mxCell id="Ujw5lM8O871B_2RmkJ98-30" value="tbd" style="text;align=left;verticalAlign=top;spacingLeft=4;spacingRight=4;overflow=hidden;rotatable=0;points=[[0,0.5],[1,0.5]];portConstraint=eastwest;" vertex="1" parent="Ujw5lM8O871B_2RmkJ98-29">
          <mxGeometry y="26" width="320" height="54" as="geometry" />
        </mxCell>
        <mxCell id="Ujw5lM8O871B_2RmkJ98-31" value="" style="line;html=1;strokeWidth=1;align=left;verticalAlign=middle;spacingTop=-1;spacingLeft=3;spacingRight=3;rotatable=0;labelPosition=right;points=[];portConstraint=eastwest;" vertex="1" parent="Ujw5lM8O871B_2RmkJ98-29">
          <mxGeometry y="80" width="320" height="2" as="geometry" />
        </mxCell>
        <mxCell id="Ujw5lM8O871B_2RmkJ98-32" value="tbd" style="text;align=left;verticalAlign=top;spacingLeft=4;spacingRight=4;overflow=hidden;rotatable=0;points=[[0,0.5],[1,0.5]];portConstraint=eastwest;" vertex="1" parent="Ujw5lM8O871B_2RmkJ98-29">
          <mxGeometry y="82" width="320" height="58" as="geometry" />
        </mxCell>
        <mxCell id="Ujw5lM8O871B_2RmkJ98-33" value="Perimeter" style="swimlane;fontStyle=2;align=center;verticalAlign=top;childLayout=stackLayout;horizontal=1;startSize=26;horizontalStack=0;resizeParent=1;resizeLast=0;collapsible=1;marginBottom=0;rounded=0;shadow=0;strokeWidth=1;" vertex="1" parent="WIyWlLk6GJQsqaUBKTNV-1">
          <mxGeometry x="80" y="1600" width="320" height="140" as="geometry">
            <mxRectangle x="230" y="140" width="160" height="26" as="alternateBounds" />
          </mxGeometry>
        </mxCell>
        <mxCell id="Ujw5lM8O871B_2RmkJ98-34" value="tbd" style="text;align=left;verticalAlign=top;spacingLeft=4;spacingRight=4;overflow=hidden;rotatable=0;points=[[0,0.5],[1,0.5]];portConstraint=eastwest;" vertex="1" parent="Ujw5lM8O871B_2RmkJ98-33">
          <mxGeometry y="26" width="320" height="54" as="geometry" />
        </mxCell>
        <mxCell id="Ujw5lM8O871B_2RmkJ98-35" value="" style="line;html=1;strokeWidth=1;align=left;verticalAlign=middle;spacingTop=-1;spacingLeft=3;spacingRight=3;rotatable=0;labelPosition=right;points=[];portConstraint=eastwest;" vertex="1" parent="Ujw5lM8O871B_2RmkJ98-33">
          <mxGeometry y="80" width="320" height="2" as="geometry" />
        </mxCell>
        <mxCell id="Ujw5lM8O871B_2RmkJ98-36" value="tbd" style="text;align=left;verticalAlign=top;spacingLeft=4;spacingRight=4;overflow=hidden;rotatable=0;points=[[0,0.5],[1,0.5]];portConstraint=eastwest;" vertex="1" parent="Ujw5lM8O871B_2RmkJ98-33">
          <mxGeometry y="82" width="320" height="58" as="geometry" />
        </mxCell>
        <mxCell id="Ujw5lM8O871B_2RmkJ98-37" value="MicroROS or Rosserial" style="swimlane;fontStyle=2;align=center;verticalAlign=top;childLayout=stackLayout;horizontal=1;startSize=26;horizontalStack=0;resizeParent=1;resizeLast=0;collapsible=1;marginBottom=0;rounded=0;shadow=0;strokeWidth=1;" vertex="1" parent="WIyWlLk6GJQsqaUBKTNV-1">
          <mxGeometry x="80" y="1800" width="320" height="140" as="geometry">
            <mxRectangle x="230" y="140" width="160" height="26" as="alternateBounds" />
          </mxGeometry>
        </mxCell>
        <mxCell id="Ujw5lM8O871B_2RmkJ98-38" value="tbd" style="text;align=left;verticalAlign=top;spacingLeft=4;spacingRight=4;overflow=hidden;rotatable=0;points=[[0,0.5],[1,0.5]];portConstraint=eastwest;" vertex="1" parent="Ujw5lM8O871B_2RmkJ98-37">
          <mxGeometry y="26" width="320" height="54" as="geometry" />
        </mxCell>
        <mxCell id="Ujw5lM8O871B_2RmkJ98-39" value="" style="line;html=1;strokeWidth=1;align=left;verticalAlign=middle;spacingTop=-1;spacingLeft=3;spacingRight=3;rotatable=0;labelPosition=right;points=[];portConstraint=eastwest;" vertex="1" parent="Ujw5lM8O871B_2RmkJ98-37">
          <mxGeometry y="80" width="320" height="2" as="geometry" />
        </mxCell>
        <mxCell id="Ujw5lM8O871B_2RmkJ98-40" value="tbd" style="text;align=left;verticalAlign=top;spacingLeft=4;spacingRight=4;overflow=hidden;rotatable=0;points=[[0,0.5],[1,0.5]];portConstraint=eastwest;" vertex="1" parent="Ujw5lM8O871B_2RmkJ98-37">
          <mxGeometry y="82" width="320" height="58" as="geometry" />
        </mxCell>
      </root>
    </mxGraphModel>
  </diagram>
</mxfile>
